<?xml version="1.0" encoding="utf-8"?>
<!-- Generator: Adobe Illustrator 16.0.0, SVG Export Plug-In . SVG Version: 6.00 Build 0)  -->
<!DOCTYPE svg PUBLIC "-//W3C//DTD SVG 1.1//EN" "http://www.w3.org/Graphics/SVG/1.1/DTD/svg11.dtd">
<svg version="1.1"
	 id="svg2408" xmlns:inkscape="http://www.inkscape.org/namespaces/inkscape" xmlns:rdf="http://www.w3.org/1999/02/22-rdf-syntax-ns#" xmlns:cc="http://creativecommons.org/ns#" xmlns:dc="http://purl.org/dc/elements/1.1/" xmlns:svg="http://www.w3.org/2000/svg"
	 xmlns="http://www.w3.org/2000/svg" xmlns:xlink="http://www.w3.org/1999/xlink" x="0px" y="0px" width="800.072px"
	 height="678.559px" viewBox="0 0 800.072 678.559" enable-background="new 0 0 800.072 678.559" xml:space="preserve">
<filter  color-interpolation-filters="sRGB" id="filter3174">
	<feGaussianBlur  stdDeviation="1.71" id="feGaussianBlur3176"></feGaussianBlur>
</filter>
<g id="layer2" display="none">
	<g id="rect3745" display="inline" opacity="0.9" filter="url(#filter3174)" enable-background="new    ">
		
			<linearGradient id="SVGID_1_" gradientUnits="userSpaceOnUse" x1="55.1287" y1="814.8574" x2="55.1287" y2="729.3613" gradientTransform="matrix(1.0059 0 0 0.9942 -7.4546 -718.1304)">
			<stop  offset="0" style="stop-color:#000000"/>
			<stop  offset="1" style="stop-color:#000000;stop-opacity:0.5882"/>
		</linearGradient>
		<path fill="url(#SVGID_1_)" d="M11,7h74c3.312,0,6,2.687,6,6v73c0,3.313-2.688,6-6,6H11c-3.313,0-6-2.687-6-6V13
			C5,9.687,7.687,7,11,7z"/>
	</g>
</g>
<g>
	<path id="path3673" inkscape:connector-curvature="0" fill="#FFFFFF" d="M613.832,425.707c-16.68-22.826-34.57-41.396-34.57-83.871
		v-141c0-59.759,4.331-114.619-40.186-155.732C504.035,11.763,445.826,0,401.309,0c-87.065,0-184.191,32.13-204.56,138.599
		c-2.156,11.309,6.146,17.229,13.672,18.893l88.655,9.493c8.302-0.417,14.297-8.491,15.903-16.623
		c7.603-36.688,38.654-54.313,73.545-54.313c18.817,0,40.187,6.808,51.324,23.507c12.822,18.589,11.101,44.138,11.101,65.602v11.819
		c-53.024,5.863-122.39,9.759-172.051,31.298c-57.28,24.546-97.505,74.491-97.505,147.902c0,94.082,59.854,141.114,136.916,141.114
		c65.035,0,100.626-15.186,150.796-65.791c16.644,23.865,22.089,35.363,52.441,60.345c6.807,3.595,15.583,3.252,21.614-2.154
		l0.021-0.02l0.207,0.227c18.269-16.074,51.438-44.592,70.141-60.098C620.999,443.729,619.675,433.914,613.832,425.707z
		 M433.837,385.049c-14.522,25.529-37.652,41.149-63.353,41.149c-35.042,0-55.617-26.476-55.617-65.642
		c0-77.1,69.933-91.093,136.064-91.093v19.535h0.02C450.951,324.267,451.803,353.635,433.837,385.049z"/>
	<g id="g3717" transform="matrix(4.0940394,0,0,4.0940394,105.99043,-56.114346)">
		<path id="path3719" inkscape:connector-curvature="0" fill="#FFFFFF" d="M150.751,155.27
			c-21.39,15.782-52.41,24.179-79.125,24.179c-37.427,0-71.14-13.834-96.65-36.865c-2.001-1.811-0.215-4.284,2.189-2.878
			c27.527,16.018,61.562,25.66,96.714,25.66c23.716,0,49.781-4.917,73.764-15.096C151.261,148.74,154.293,152.66,150.751,155.27
			L150.751,155.27z"/>
		<path id="path3721" inkscape:connector-curvature="0" fill="#FFFFFF" d="M159.652,145.104c-2.734-3.499-18.091-1.658-24.978-0.826
			c-2.095,0.243-2.417-1.575-0.535-2.909c12.246-8.601,32.313-6.112,34.647-3.237c2.352,2.915-0.614,23.03-12.093,32.626
			c-1.766,1.481-3.443,0.701-2.663-1.253C156.612,163.048,162.396,148.609,159.652,145.104z"/>
	</g>
</g>
</svg>
