<?xml version="1.0" encoding="utf-8"?>
<!-- Generator: Adobe Illustrator 16.0.0, SVG Export Plug-In . SVG Version: 6.00 Build 0)  -->
<!DOCTYPE svg PUBLIC "-//W3C//DTD SVG 1.1//EN" "http://www.w3.org/Graphics/SVG/1.1/DTD/svg11.dtd">
<svg version="1.1"
	 id="svg2408" xmlns:inkscape="http://www.inkscape.org/namespaces/inkscape" xmlns:rdf="http://www.w3.org/1999/02/22-rdf-syntax-ns#" xmlns:cc="http://creativecommons.org/ns#" xmlns:dc="http://purl.org/dc/elements/1.1/" xmlns:svg="http://www.w3.org/2000/svg"
	 xmlns="http://www.w3.org/2000/svg" xmlns:xlink="http://www.w3.org/1999/xlink" x="0px" y="0px" width="339.042px"
	 height="678.08px" viewBox="243.833 0 339.042 678.08" enable-background="new 243.833 0 339.042 678.08" xml:space="preserve">
<filter  color-interpolation-filters="sRGB" id="filter3174">
	<feGaussianBlur  stdDeviation="1.71" id="feGaussianBlur3176"></feGaussianBlur>
</filter>
<g id="layer2" display="none">
	<g id="rect3745" display="inline" opacity="0.9" filter="url(#filter3174)" enable-background="new    ">
		
			<linearGradient id="SVGID_1_" gradientUnits="userSpaceOnUse" x1="72.9534" y1="929.8574" x2="72.9534" y2="844.3613" gradientTransform="matrix(1.0059 0 0 0.9942 -25.3843 -832.4624)">
			<stop  offset="0" style="stop-color:#000000"/>
			<stop  offset="1" style="stop-color:#000000;stop-opacity:0.5882"/>
		</linearGradient>
		<path fill="url(#SVGID_1_)" d="M11,7h74c3.312,0,6,2.687,6,6v73c0,3.313-2.688,6-6,6H11c-3.312,0-6-2.687-6-6V13
			C5,9.687,7.687,7,11,7z"/>
	</g>
</g>
<path fill="#FFFFFF" d="M345.546,135.614C345.546,61.018,406.536,0,481.163,0h101.712v135.614h-67.809
	c-18.275,0-33.903,15.594-33.903,33.905v67.808h101.712v135.617H481.163V678.08H345.546V372.944H243.833V237.327h101.712
	L345.546,135.614L345.546,135.614z"/>
</svg>
