<?xml version="1.0" encoding="utf-8"?>
<!-- Generator: Adobe Illustrator 16.0.0, SVG Export Plug-In . SVG Version: 6.00 Build 0)  -->
<!DOCTYPE svg PUBLIC "-//W3C//DTD SVG 1.1//EN" "http://www.w3.org/Graphics/SVG/1.1/DTD/svg11.dtd">
<svg version="1.1"
	 id="svg2408" xmlns:inkscape="http://www.inkscape.org/namespaces/inkscape" xmlns:rdf="http://www.w3.org/1999/02/22-rdf-syntax-ns#" xmlns:cc="http://creativecommons.org/ns#" xmlns:dc="http://purl.org/dc/elements/1.1/" xmlns:svg="http://www.w3.org/2000/svg"
	 xmlns="http://www.w3.org/2000/svg" xmlns:xlink="http://www.w3.org/1999/xlink" x="0px" y="0px" width="695.557px"
	 height="678.392px" viewBox="51.444 0 695.557 678.392" enable-background="new 51.444 0 695.557 678.392" xml:space="preserve">
<filter  color-interpolation-filters="sRGB" id="filter3174">
	<feGaussianBlur  stdDeviation="1.71" id="feGaussianBlur3176"></feGaussianBlur>
</filter>
<g id="layer2" display="none">
	<g id="rect3745" display="inline" opacity="0.9" filter="url(#filter3174)" enable-background="new    ">
		
			<linearGradient id="SVGID_1_" gradientUnits="userSpaceOnUse" x1="81.8655" y1="-227.5762" x2="81.8655" y2="-142.0801" gradientTransform="matrix(1.0059 0 0 -0.9942 -34.3491 -134.2563)">
			<stop  offset="0" style="stop-color:#000000"/>
			<stop  offset="1" style="stop-color:#000000;stop-opacity:0.5882"/>
		</linearGradient>
		<path fill="url(#SVGID_1_)" d="M11,7h74c3.312,0,6,2.687,6,6v73c0,3.313-2.688,6-6,6H11c-3.312,0-6-2.687-6-6V13
			C5,9.687,7.687,7,11,7z"/>
	</g>
</g>
<path fill="#FFFFFF" d="M399.223,0C207.078,0,51.444,155.633,51.444,347.777c0,153.895,99.553,283.887,237.803,329.949
	c17.386,3.057,23.9-7.388,23.9-16.515c0-8.278-0.445-35.62-0.445-64.784c-87.369,16.09-109.976-21.269-116.938-40.84
	c-3.906-10.02-20.865-40.883-35.639-49.118c-12.163-6.539-29.569-22.629-0.425-23.054c27.383-0.467,46.932,25.217,53.47,35.618
	c31.288,52.644,81.276,37.869,101.273,28.699c3.057-22.586,12.183-37.783,22.182-46.485
	c-77.393-8.704-158.247-38.677-158.247-171.726c0-37.824,13.479-69.113,35.662-93.46c-3.481-8.703-15.665-44.341,3.459-92.166
	c0,0,29.144-9.126,95.647,35.64c27.83-7.812,57.376-11.738,86.966-11.738c29.547,0,59.096,3.926,86.902,11.738
	c66.524-45.212,95.689-35.64,95.689-35.64c19.104,47.825,6.92,83.463,3.439,92.166c22.202,24.348,35.661,55.21,35.661,93.46
	c0,133.476-81.299,163.021-158.649,171.726c12.566,10.868,23.435,31.714,23.435,64.316c0,46.527-0.425,83.886-0.425,95.647
	c0,9.127,6.538,19.995,23.901,16.515c141.583-47.804,236.891-180.513,236.935-329.949C747.001,155.633,591.365,0,399.223,0z"/>
</svg>
