<?xml version="1.0" encoding="utf-8"?>
<!-- Generator: Adobe Illustrator 16.0.0, SVG Export Plug-In . SVG Version: 6.00 Build 0)  -->
<!DOCTYPE svg PUBLIC "-//W3C//DTD SVG 1.1//EN" "http://www.w3.org/Graphics/SVG/1.1/DTD/svg11.dtd">
<svg version="1.1"
	 id="svg2408" xmlns:inkscape="http://www.inkscape.org/namespaces/inkscape" xmlns:rdf="http://www.w3.org/1999/02/22-rdf-syntax-ns#" xmlns:cc="http://creativecommons.org/ns#" xmlns:dc="http://purl.org/dc/elements/1.1/" xmlns:svg="http://www.w3.org/2000/svg"
	 xmlns="http://www.w3.org/2000/svg" xmlns:xlink="http://www.w3.org/1999/xlink" x="0px" y="0px" width="677.36px"
	 height="677.362px" viewBox="56.698 0 677.36 677.362" enable-background="new 56.698 0 677.36 677.362" xml:space="preserve">
<filter  color-interpolation-filters="sRGB" id="filter3174">
	<feGaussianBlur  stdDeviation="1.71" id="feGaussianBlur3176"></feGaussianBlur>
</filter>
<g id="layer2" display="none">
	<g id="rect3745" display="inline" opacity="0.9" filter="url(#filter3174)" enable-background="new    ">
		
			<linearGradient id="SVGID_1_" gradientUnits="userSpaceOnUse" x1="90.7776" y1="1044.8564" x2="90.7776" y2="959.3604" gradientTransform="matrix(1.0059 0 0 0.9942 -43.3139 -946.7944)">
			<stop  offset="0" style="stop-color:#000000"/>
			<stop  offset="1" style="stop-color:#000000;stop-opacity:0.5882"/>
		</linearGradient>
		<path fill="url(#SVGID_1_)" d="M11,7h74c3.312,0,6,2.687,6,6v73c0,3.313-2.688,6-6,6H11c-3.312,0-6-2.687-6-6V13
			C5,9.687,7.687,7,11,7z"/>
	</g>
</g>
<path fill="#FFFFFF" d="M56.698,338.681C56.698,151.932,208.63,0,395.378,0c75.422,0,146.809,24.265,206.447,70.175l-78.702,102.237
	c-36.874-28.385-81.049-43.391-127.745-43.391c-115.606,0-209.659,94.053-209.659,209.66c0,115.605,94.052,209.659,209.659,209.659
	c93.112,0,172.237-61.004,199.505-145.148H395.378V274.171h338.68v64.511c0,186.748-151.932,338.68-338.68,338.68
	C208.629,677.362,56.698,525.429,56.698,338.681z"/>
</svg>
