<?xml version="1.0" encoding="UTF-8" standalone="no"?>
<!-- Generator: Adobe Illustrator 19.2.1, SVG Export Plug-In . SVG Version: 6.00 Build 0)  -->

<svg
   xmlns:dc="http://purl.org/dc/elements/1.1/"
   xmlns:cc="http://creativecommons.org/ns#"
   xmlns:rdf="http://www.w3.org/1999/02/22-rdf-syntax-ns#"
   xmlns:svg="http://www.w3.org/2000/svg"
   xmlns="http://www.w3.org/2000/svg"
   xmlns:sodipodi="http://sodipodi.sourceforge.net/DTD/sodipodi-0.dtd"
   xmlns:inkscape="http://www.inkscape.org/namespaces/inkscape"
   id="svg14"
   width="236.3"
   height="197.39999"
   version="1.0"
   viewBox="0 0 236.3 197.39999"
   xml:space="preserve"
   sodipodi:docname="keycloak.svg"
   inkscape:version="0.92.5 (2060ec1f9f, 2020-04-08)"><defs
   id="defs10" /><sodipodi:namedview
   pagecolor="#ffffff"
   bordercolor="#666666"
   borderopacity="1"
   objecttolerance="10"
   gridtolerance="10"
   guidetolerance="10"
   inkscape:pageopacity="0"
   inkscape:pageshadow="2"
   inkscape:window-width="1920"
   inkscape:window-height="1015"
   id="namedview8"
   showgrid="false"
   inkscape:pagecheckerboard="true"
   inkscape:zoom="2.3910842"
   inkscape:cx="156.98875"
   inkscape:cy="65.320632"
   inkscape:window-x="0"
   inkscape:window-y="0"
   inkscape:window-maximized="1"
   inkscape:current-layer="Layer_1"
   fit-margin-top="0"
   fit-margin-left="0"
   fit-margin-right="0"
   fit-margin-bottom="0" /><metadata
   id="metadata20"><rdf:RDF><cc:Work
       rdf:about=""><dc:format>image/svg+xml</dc:format><dc:type
         rdf:resource="http://purl.org/dc/dcmitype/StillImage" /><dc:title></dc:title></cc:Work></rdf:RDF></metadata>
<style
   id="style2"
   type="text/css">
	.st0{fill:#4D4D4D;}
	.st1{fill:#AFAFAF;}
</style>

<g
   id="Layer_1"
   transform="translate(-28.11822,-31.290254)">
	<path
   id="path5"
   class="st0"
   d="m 263.81822,81.190254 c -0.4,-0.4 -0.9,-0.6 -1.5,-0.6 h -34.2 c -0.7,0 -1.2,-0.3 -1.6,-0.9 l -27.4,-47.5 c -0.3,-0.6 -0.9,-0.9 -1.6,-0.9 h -111.8 c -0.7,0 -1.3,0.3 -1.6,0.9 l -28.4,49.3 -1,1.8 -26.4,45.799996 c -0.2,0.3 -0.2,0.6 -0.2,0.9 0,0.2 0,0.5 0.1,0.7 0,0.1 0.1,0.2 0.1,0.2 l 3,5.2 24.4,42.3 0.1,0.1 28.4,49.3 c 0.3,0.6 0.9,0.9 1.6,0.9 h 111.9 c 0.7,0 1.3,-0.3 1.6,-0.9 l 27.4,-47.5 c 0.3,-0.6 0.9,-0.9 1.6,-0.9 h 34.1 0.1 0.1 c 0.5,0 0.9,-0.3 1.2,-0.6 0.1,-0.1 0.2,-0.2 0.2,-0.3 0.1,-0.1 0.1,-0.2 0.2,-0.3 0.1,-0.2 0.2,-0.5 0.2,-0.8 V 82.690254 c 0,-0.6 -0.2,-1.1 -0.6,-1.5 z m -132.2,99.099996 -8.6,14.8 c -0.1,0.2 -0.3,0.4 -0.6,0.5 -0.2,0.1 -0.5,0.2 -0.8,0.2 h -17.1 c -0.6,0 -1.1,-0.3 -1.4,-0.8 l -9.1,-15.7 -16.3,-28.4 -2.5,-4.4 -9.1,-15.7 c -0.1,-0.2 -0.2,-0.5 -0.2,-0.8 0,-0.3 0.1,-0.6 0.2,-0.8 l 9.2,-15.9 18.9,-32.699996 9,-15.6 c 0.3,-0.5 0.8,-0.8 1.4,-0.8 h 17.1 c 0.3,0 0.6,0.1 0.8,0.2 0.2,0.1 0.4,0.3 0.6,0.5 l 0.1,0.1 8.6,14.9 c 0.1,0.2 0.2,0.5 0.2,0.7 0,0.3 -0.1,0.6 -0.2,0.8 l -27.6,47.799996 c -0.1,0.2 -0.2,0.5 -0.2,0.8 0,0.3 0,0.5 0.2,0.8 v 0.1 l 27.5,47.7 c 0.1,0.2 0.2,0.5 0.2,0.7 0,0.4 -0.1,0.7 -0.3,1 z m 48.5,14.8 c -0.3,0.5 -0.8,0.8 -1.4,0.8 h -17.1 c -0.3,0 -0.6,-0.1 -0.8,-0.2 -0.2,-0.1 -0.4,-0.3 -0.6,-0.5 l -8.6,-14.9 c -0.1,-0.3 -0.2,-0.5 -0.2,-0.8 0,-0.2 0.1,-0.5 0.2,-0.7 l 27.5,-47.8 c 0.2,-0.2 0.2,-0.5 0.2,-0.8 0,-0.3 -0.1,-0.6 -0.2,-0.8 l -27.5,-47.699996 c -0.2,-0.3 -0.2,-0.6 -0.2,-0.9 0,-0.3 0.1,-0.5 0.2,-0.8 l 8.6,-14.9 c 0.1,-0.2 0.3,-0.4 0.6,-0.5 0.2,-0.1 0.5,-0.2 0.8,-0.2 h 17.1 c 0.6,0 1.1,0.3 1.4,0.8 l 9,15.6 19,32.999996 9,15.6 c 0.2,0.2 0.2,0.5 0.2,0.8 0,0.3 -0.1,0.6 -0.2,0.8 l -28,48.5 z"
   style="fill:#ffffff;fill-opacity:1"
   inkscape:connector-curvature="0" />
	
	
	
</g>
</svg>