<?xml version="1.0" encoding="UTF-8" standalone="no"?>
<svg
   xmlns:dc="http://purl.org/dc/elements/1.1/"
   xmlns:cc="http://creativecommons.org/ns#"
   xmlns:rdf="http://www.w3.org/1999/02/22-rdf-syntax-ns#"
   xmlns:svg="http://www.w3.org/2000/svg"
   xmlns="http://www.w3.org/2000/svg"
   xmlns:xlink="http://www.w3.org/1999/xlink"
   height="155.38"
   width="155.38"
   version="1.1"
   id="svg2"
   viewBox="0 0 155.38001 155.38"
   font-weight="600"
   font-style="italic"
   style="font-style:italic;font-weight:600;font-family:Arial, sans-serif">
  <metadata
     id="metadata30">
    <rdf:RDF>
      <cc:Work
         rdf:about="">
        <dc:format>image/svg+xml</dc:format>
        <dc:type
           rdf:resource="http://purl.org/dc/dcmitype/StillImage" />
        <dc:title></dc:title>
      </cc:Work>
    </rdf:RDF>
  </metadata>
  <defs
     id="defs4">
    <path
       d="m 0,0 303.3,0 0,102.05 -303.3,0 z"
       id="a" />
  </defs>
  <clipPath
     id="b">
    <use
       height="100%"
       width="100%"
       y="0"
       x="0"
       style="overflow:visible"
       id="use8"
       overflow="visible"
       xlink:href="#a" />
  </clipPath>
  <g
     transform="translate(-146.88,26.800002)"
     id="g4158">
    <path
       style="fill:#ed1c24"
       d="m 146.88,25.7 155.38,0 0,54.75 -155.38,0 z"
       clip-path="url(#b)"
       id="path10" />
    <path
       style="fill:#0054a6"
       d="m 232.5,1.45 c 20.13,7.25 44.75,24.63 53.63,33.25 -0.63,15.38 -8,37.25 -10.13,41.25 -14.5,0.25 -43.25,-3.25 -54.75,-5 C 218,50.83 217.75,26.08 232.5,1.45"
       clip-path="url(#b)"
       id="path12" />
    <path
       style="fill:#00a651"
       d="m 160.75,35.58 c 18.88,-4.88 33.88,-7.5 56.38,-7 -1.75,20.37 -2.25,37.12 3.62,57.87 -10.5,6.75 -30.38,12.88 -39.13,13.88 -18,-32.63 -14.25,-37.38 -20.87,-64.75"
       clip-path="url(#b)"
       id="path14" />
    <path
       style="fill:#fff200"
       d="m 272.9,36.8 c -1.1,-0.8 -2.8,-0.9 -4.2,-0.4 -4.8,1.3 -7.9,6.7 -12.3,9 -0.4,-0.3 -1,-0.7 -0.6,-1.2 l 5.6,-7.4 c 2.1,-2.7 4.8,-5.2 5.1,-8.7 0.2,-1.9 -0.3,-3.4 -1.5,-4.7 -1.2,-1.2 -2.9,-1.2 -4.7,-1.3 -5.7,1.5 -12.3,0.6 -18.2,0 -1.5,0.2 -2.8,1.7 -3.6,3 -3,7.7 5.3,12.6 9.4,18.2 l 0.4,1.2 c -1.6,0.7 -3,-1.6 -4.5,-2.4 -4.1,-2.2 -7.7,-7.2 -12.8,-5.6 -5,2.5 -1.7,8.4 -2,12.6 0.4,4.5 -2.6,9.9 1.8,13.1 6.9,3.4 11.7,-4.1 16.8,-7.6 1.2,-0.4 2.4,0.4 3,1.4 0.5,5.6 -0.5,12 4.1,15.6 0.5,-0.7 1.1,-1.5 1.2,-2.4 -3.2,-3.5 -3.5,-8.6 -2.9,-13.4 0.6,-0.8 1.4,-1.2 2.3,-0.8 5.4,3.3 9.7,11.2 16.7,8.8 3.6,-2.1 2.1,-6.5 1.8,-9.9 -2.3,-6.1 4.1,-11.9 -0.9,-17.1 z m -21,13.5 c -0.3,-0.1 -0.4,-0.4 -0.7,-0.6 l 0.6,-0.9 c 0.3,0.1 0.5,0.4 0.7,0.6 -0.1,0.3 -0.3,0.6 -0.6,0.9 z m 20.1,4.4 c 0.1,2.2 1.4,4.9 -0.1,6.9 -1.1,1 -2.9,1.2 -4.1,0.6 -4.8,-2 -8.1,-7.5 -13,-9.3 l -1.9,0.5 c -0.3,-1.2 0.5,-1.9 0.7,-2.9 L 269,50.3 c 0.5,-0.5 0.9,-1.3 0.3,-1.8 l -0.6,-0.5 -15.1,0 -0.8,-1.1 0.1,-18.5 c -0.4,-0.5 -1,-0.9 -1.7,-0.6 l -0.5,0.5 0.3,18.7 -1.1,1.1 -15.7,-0.1 c -0.8,0.6 -0.6,1.5 -0.2,2.2 5.2,0.4 10.7,0.1 16.1,0.2 0.1,1 0.8,1.8 0.5,2.9 -5.4,-2.5 -8.5,5 -13,6.9 -1.4,1 -3.4,1.3 -5.1,0.8 -1.2,-0.4 -1.7,-1.8 -2.1,-2.8 -0.3,-3 0.7,-5.8 0.6,-8.9 0.7,-3.8 -3.3,-9.4 1.5,-11.4 l 1.9,0.3 c 4.4,2.4 8.4,5.9 12.7,8.5 1.4,0.4 2.5,-0.5 3,-1.6 0.7,-1.7 -0.9,-2.8 -1.8,-4.1 -3.4,-4.9 -11.4,-9.5 -7.4,-16 1.3,-1.7 3.9,-0.9 5.6,-0.8 4.3,1 9.6,0.9 13.7,-0.3 1.7,-0.1 3.4,0.4 4.2,1.9 1.2,4.7 -3,7.7 -5.5,11.2 -1.9,2.8 -5.8,5.3 -4.7,9 0.9,1.1 2.2,1.4 3.5,1 4.2,-2.6 7.3,-7.6 12,-9 1.4,-0.3 2.7,0.5 3.1,1.7 0.2,4.9 -2.2,9.8 -0.8,15 z m -57.4,5.4 c 0,-1.6 -0.3,-3.2 -1.5,-4.3 -2.4,-2.2 -5.7,-2.9 -8.8,-2.2 -4.3,1.2 -7.3,5.4 -8.1,9.5 -0.5,1.4 -0.2,3.2 -0.8,4.3 -1.5,-7.2 3.5,-12.3 5.6,-18.3 1.5,-7.4 -5.2,-12.3 -8.3,-18.1 -3.3,6.4 -11.2,12 -7.5,20.1 2.8,5 5.9,9.9 5,16.2 l -0.3,0.1 c -0.4,-2.2 -0.5,-4.6 -1.3,-6.7 -1.3,-3.7 -4.7,-6.6 -8.5,-7.2 -3.2,-0.5 -6,0.6 -8.2,2.8 -4.1,4.8 3.8,8.4 0.6,13.2 0.4,0.3 0.9,0.6 1.5,0.7 4.6,1.5 4.6,-4 8.1,-5.2 1.3,-0.5 2.3,0.4 3.1,1.4 1.9,1.8 -1.7,1.6 -1.4,3.3 -0.4,1.2 0.2,2.2 0.7,3.1 1.2,1.3 3.1,0.7 4.7,1 l 0,0.6 c -2.1,2.9 -6.3,1.5 -8.4,4.4 -1,2 -0.8,5 0.7,6.5 1.8,-0.6 4.2,-0.4 5.8,0.3 l -0.6,1.6 c -1.2,4.3 3.7,6 6,8.7 1.7,-1.8 3.9,-2.7 5.4,-4.8 1.2,-1.7 0.7,-4.1 0.2,-5.8 1.9,-0.6 3.9,-0.4 5.8,-0.1 1.3,-1.6 1.5,-4.2 0.7,-6.1 -1.5,-2.5 -4.7,-2.2 -7,-3.4 -0.7,-0.3 -1.8,-1.1 -1.4,-2 1.6,-0.2 3.6,0.5 4.7,-1.1 0.5,-0.9 0.9,-1.9 0.6,-3 -0.3,-1.1 -1.4,-1.5 -1.9,-2.3 0.3,-1 1.1,-1.7 2,-2.3 2.9,-0.6 4.4,2.5 5.8,4.5 1.6,1.1 3.7,0.7 5.6,0.5 -2.9,-3.4 1.3,-6.4 1.4,-9.9 z M 187,50.5 c -3.2,-6.3 2.9,-11.1 5.7,-16.1 2.6,4.6 7.6,8.4 6.5,14.2 -2.7,6 -6.8,11.4 -5.8,19 l -1.2,0 C 192.9,61 190.1,55.7 187,50.5 Z M 183.3,63 c -3,-0.2 -5.2,2.7 -6.6,5 -0.6,0.1 -1,0.6 -1.7,0.4 1.6,-4.5 -5.2,-7.5 -0.9,-11.6 1.8,-1.3 4.1,-1.8 6.5,-1.4 1.8,0.7 3.7,1.7 4.9,3.4 1.5,2.6 2.4,5.4 2.4,8.6 -0.6,-1.7 -2.4,-4 -4.6,-4.4 z m 19.5,16.3 c 0.9,1 0.6,2.7 0.3,3.9 -2.6,-0.5 -5.1,0.2 -7.4,0.8 0.2,1.8 1.9,3.6 1.1,5.6 -1,1.6 -2.6,2.6 -4,3.6 -1.6,-1.1 -3.8,-2.3 -4.3,-4.3 -0.3,-1.9 0.9,-3.1 1.4,-4.7 -2.2,-0.7 -4.8,-1.5 -7.5,-1 -0.4,-1 -0.5,-2.5 0.1,-3.4 2.7,-2.1 8.1,-1.3 8.6,-6 l 3.3,0 c 0.4,4.4 5.4,4.1 8.4,5.5 z m -3.2,-7.9 -0.8,0.4 -12.5,0 c -0.8,-0.3 -0.8,-1.2 -0.6,-1.8 l 0.5,-0.5 13.2,0.1 c 0.6,0.4 0.6,1.3 0.2,1.8 z m 4.5,-8.2 c -1.3,-0.5 -2.9,-0.1 -4,0.6 -1.2,1 -2,2.4 -2.4,3.8 -0.1,-3.7 0.8,-7.4 3.4,-10.1 2.7,-2.6 7.6,-3.2 10.5,-0.6 1.2,1.1 1.3,3 0.9,4.5 -1.3,2.1 -2.4,4.3 -2.1,6.9 -2.9,0 -3.2,-4.5 -6.3,-5.1 z"
       clip-path="url(#b)"
       id="path16" />
  </g>
</svg>
