<?xml version="1.0" encoding="utf-8"?>
<!-- Generator: Adobe Illustrator 16.0.0, SVG Export Plug-In . SVG Version: 6.00 Build 0)  -->
<!DOCTYPE svg PUBLIC "-//W3C//DTD SVG 1.1//EN" "http://www.w3.org/Graphics/SVG/1.1/DTD/svg11.dtd">
<svg version="1.1"
	 id="svg2408" xmlns:inkscape="http://www.inkscape.org/namespaces/inkscape" xmlns:rdf="http://www.w3.org/1999/02/22-rdf-syntax-ns#" xmlns:cc="http://creativecommons.org/ns#" xmlns:dc="http://purl.org/dc/elements/1.1/" xmlns:svg="http://www.w3.org/2000/svg"
	 xmlns="http://www.w3.org/2000/svg" xmlns:xlink="http://www.w3.org/1999/xlink" x="0px" y="0px" width="729.124px"
	 height="675.254px" viewBox="44.034 -0.161 729.124 675.254" enable-background="new 44.034 -0.161 729.124 675.254"
	 xml:space="preserve">
<filter  color-interpolation-filters="sRGB" id="filter3174">
	<feGaussianBlur  stdDeviation="1.71" id="feGaussianBlur3176"></feGaussianBlur>
</filter>
<g id="layer2" display="none">
	<g id="rect3745" display="inline" opacity="0.9" filter="url(#filter3174)" enable-background="new    ">
		
			<linearGradient id="SVGID_1_" gradientUnits="userSpaceOnUse" x1="108.6389" y1="1159.8599" x2="108.6389" y2="1074.3647" gradientTransform="matrix(1.0059 0 0 0.9942 -61.2803 -1061.1313)">
			<stop  offset="0" style="stop-color:#000000"/>
			<stop  offset="1" style="stop-color:#000000;stop-opacity:0.5882"/>
		</linearGradient>
		<path fill="url(#SVGID_1_)" d="M11,7h74c3.312,0,6,2.687,6,6v73c0,3.313-2.688,6-6,6H11c-3.312,0-6-2.687-6-6V13
			C5,9.687,7.687,7,11,7z"/>
	</g>
</g>
<g>
	<polygon fill="#FFFFFF" points="375.391,53.797 375.391,605.852 375.391,675.093 485.842,623.109 485.842,-0.161 	"/>
	<polyline fill="#FFFFFF" points="757.908,236.043 773.158,394.351 559.561,347.875 	"/>
	<path fill="#FFFFFF" d="M505.231,204.21v70.126c46.25,8.005,87.619,23.22,120.638,43.629l78.102-48.268
		C650.746,236.8,582.05,213.495,505.231,204.21 M154.487,438.628c0-78.261,85.28-144.171,201.517-164.292v-70.153
		C178.209,225.672,44.034,322.459,44.034,438.628c0,120.356,144.02,219.901,331.357,236.465v-69.241
		C249.351,590.049,154.487,521.189,154.487,438.628"/>
</g>
</svg>
