<?xml version="1.0" encoding="utf-8"?>
<!-- Generator: Adobe Illustrator 16.0.0, SVG Export Plug-In . SVG Version: 6.00 Build 0)  -->
<!DOCTYPE svg PUBLIC "-//W3C//DTD SVG 1.1//EN" "http://www.w3.org/Graphics/SVG/1.1/DTD/svg11.dtd">
<svg version="1.1"
	 id="svg2408" xmlns:inkscape="http://www.inkscape.org/namespaces/inkscape" xmlns:rdf="http://www.w3.org/1999/02/22-rdf-syntax-ns#" xmlns:cc="http://creativecommons.org/ns#" xmlns:dc="http://purl.org/dc/elements/1.1/" xmlns:svg="http://www.w3.org/2000/svg"
	 xmlns="http://www.w3.org/2000/svg" xmlns:xlink="http://www.w3.org/1999/xlink" x="0px" y="0px" width="962.11px"
	 height="673.426px" viewBox="79.219 -0.29 962.11 673.426" enable-background="new 79.219 -0.29 962.11 673.426"
	 xml:space="preserve">
<filter  color-interpolation-filters="sRGB" id="filter3174">
	<feGaussianBlur  stdDeviation="1.71" id="feGaussianBlur3176"></feGaussianBlur>
</filter>
<g id="layer2" display="none">
	<g id="rect3745" display="inline" opacity="0.9" filter="url(#filter3174)" enable-background="new    ">
		
			<linearGradient id="SVGID_1_" gradientUnits="userSpaceOnUse" x1="118.4998" y1="-462.0781" x2="118.4998" y2="-376.5825" gradientTransform="matrix(1.0059 0 0 -0.9942 -71.1991 -367.3987)">
			<stop  offset="0" style="stop-color:#000000"/>
			<stop  offset="1" style="stop-color:#000000;stop-opacity:0.5882"/>
		</linearGradient>
		<path fill="url(#SVGID_1_)" d="M11,7h74c3.312,0,6,2.687,6,6v73c0,3.313-2.688,6-6,6H11c-3.312,0-6-2.687-6-6V13
			C5,9.687,7.687,7,11,7z"/>
	</g>
</g>
<g>
	<path fill="#FFFFFF" d="M479.591,73.158c31.029-32.332,74.228-52.381,122.006-52.381c63.506,0,118.918,35.414,148.426,87.988
		c25.64-11.458,54.024-17.831,83.893-17.831c114.547,0,207.413,93.675,207.413,209.225c0,115.561-92.866,209.236-207.413,209.236
		c-13.983,0-27.646-1.396-40.861-4.07c-25.98,46.356-75.496,77.672-132.334,77.672c-23.796,0-46.294-5.497-66.335-15.268
		c-26.342,61.962-87.713,105.408-159.241,105.408c-74.488,0-137.971-47.135-162.339-113.234
		c-10.648,2.263-21.682,3.438-33.002,3.438c-88.686,0-160.584-72.64-160.584-162.258c0-60.053,32.304-112.491,80.299-140.546
		c-9.881-22.738-15.377-47.832-15.377-74.215c0-103.064,83.671-186.61,186.871-186.61C391.602-0.29,445.451,28.519,479.591,73.158"
		/>
</g>
</svg>
