<?xml version="1.0" encoding="utf-8"?>
<!-- Generator: Adobe Illustrator 16.0.0, SVG Export Plug-In . SVG Version: 6.00 Build 0)  -->
<!DOCTYPE svg PUBLIC "-//W3C//DTD SVG 1.1//EN" "http://www.w3.org/Graphics/SVG/1.1/DTD/svg11.dtd">
<svg version="1.1"
	 id="svg2408" xmlns:inkscape="http://www.inkscape.org/namespaces/inkscape" xmlns:rdf="http://www.w3.org/1999/02/22-rdf-syntax-ns#" xmlns:cc="http://creativecommons.org/ns#" xmlns:dc="http://purl.org/dc/elements/1.1/" xmlns:svg="http://www.w3.org/2000/svg"
	 xmlns="http://www.w3.org/2000/svg" xmlns:xlink="http://www.w3.org/1999/xlink" x="0px" y="0px" width="793.263px"
	 height="677.388px" viewBox="3.484 -0.25 793.263 677.388" enable-background="new 3.484 -0.25 793.263 677.388"
	 xml:space="preserve">
<filter  color-interpolation-filters="sRGB" id="filter3174">
	<feGaussianBlur  stdDeviation="1.71" id="feGaussianBlur3176"></feGaussianBlur>
</filter>
<g id="layer2" display="none">
	<g id="rect3745" display="inline" opacity="0.9" filter="url(#filter3174)" enable-background="new    ">
		
			<linearGradient id="SVGID_1_" gradientUnits="userSpaceOnUse" x1="99.6897" y1="-342.5752" x2="99.6897" y2="-257.0791" gradientTransform="matrix(1.0059 0 0 -0.9942 -52.2788 -248.5884)">
			<stop  offset="0" style="stop-color:#000000"/>
			<stop  offset="1" style="stop-color:#000000;stop-opacity:0.5882"/>
		</linearGradient>
		<path fill="url(#SVGID_1_)" d="M11,7h74c3.312,0,6,2.687,6,6v73c0,3.313-2.688,6-6,6H11c-3.312,0-6-2.687-6-6V13
			C5,9.687,7.687,7,11,7z"/>
	</g>
</g>
<path fill="#FFFFFF" d="M726.816,3.544L19.496,284.43c-22.98,7.662-20.428,40.858,2.554,48.518l178.746,56.178l71.499,224.707
	c5.107,17.875,28.087,22.98,40.856,10.213l104.692-97.033l199.171,145.55c15.321,10.214,35.749,2.555,40.858-15.319l137.89-592.414
	C803.421,21.42,765.119-11.775,726.816,3.544L726.816,3.544z M313.151,432.533l-22.982,132.782l-51.071-183.852L737.031,54.615
	L313.151,432.533z"/>
</svg>
